<svg xmlns="http://www.w3.org/2000/svg" xmlns:xlink="http://www.w3.org/1999/xlink" viewBox="0 0 409.83 218.66"><defs><style>.cls-1{fill:url(#Dégradé_sans_nom_49);}.cls-2{fill:url(#Dégradé_sans_nom_48);}.cls-3{fill:url(#Dégradé_sans_nom_41);}.cls-4{fill:#52a7e6;}.cls-5{fill:url(#Dégradé_sans_nom_41-2);}.cls-6{font-size:52.43px;fill:#5b5b5b;font-family:Montserrat-LightItalic, Montserrat;font-weight:300;font-style:italic;letter-spacing:0.25em;}.cls-7{letter-spacing:0.24em;}.cls-8{letter-spacing:0.25em;}.cls-9{letter-spacing:0.26em;}</style><linearGradient id="Dégradé_sans_nom_49" x1="270.17" y1="48.28" x2="412.62" y2="-29.92" gradientUnits="userSpaceOnUse"><stop offset="0" stop-color="#4a7ddc"/><stop offset="0.17" stop-color="#4f95e2"/><stop offset="0.29" stop-color="#52a7e6"/></linearGradient><linearGradient id="Dégradé_sans_nom_48" x1="249.19" y1="75.49" x2="520.01" y2="75.49" gradientUnits="userSpaceOnUse"><stop offset="0" stop-color="#4a7ddc"/><stop offset="0.14" stop-color="#4f95e2"/><stop offset="0.23" stop-color="#52a7e6"/></linearGradient><linearGradient id="Dégradé_sans_nom_41" x1="178.6" y1="104.43" x2="204.74" y2="13.24" gradientUnits="userSpaceOnUse"><stop offset="0.49" stop-color="#52a7e6"/><stop offset="0.7" stop-color="#4f95e2"/><stop offset="1" stop-color="#4a7ddc"/></linearGradient><linearGradient id="Dégradé_sans_nom_41-2" x1="114.16" y1="112.38" x2="89.15" y2="4.03" xlink:href="#Dégradé_sans_nom_41"/></defs><title>Fichier 1</title><g id="Calque_2" data-name="Calque 2"><g id="Calque_1-2" data-name="Calque 1"><polygon class="cls-1" points="399.62 38.03 247.32 38.03 247.32 0 409.83 0 399.62 38.03"/><polygon class="cls-2" points="384.64 94.51 270.7 94.51 270.7 56.48 394.85 56.48 384.64 94.51"/><polygon class="cls-3" points="218.34 30.13 179.16 30.13 146.89 150.69 186.07 150.69 218.34 30.13"/><path class="cls-4" d="M278.94,112.28l16.19-60.17.23-1a41.15,41.15,0,0,0-39.49-51l-2,0H75.24l0,0a75.31,75.31,0,1,0,65.52,38.2H254.43a4.14,4.14,0,0,1,4,5.22L229.64,150.69H368.73l11.4-38.44Zm-203.7.13a37,37,0,1,1,37-37A37,37,0,0,1,75.24,112.41Z"/><path class="cls-5" d="M140.71,38.36H76.17v.07a37,37,0,0,1,0,74v38.32A75.26,75.26,0,0,0,140.71,38.36Z"/><text class="cls-6" transform="translate(28.66 204.97)">E<tspan class="cls-7" x="48.24" y="0">X</tspan><tspan class="cls-8" x="94.28" y="0">P</tspan><tspan class="cls-9" x="144.88" y="0">ENSE</tspan></text></g></g></svg>