<svg xmlns="http://www.w3.org/2000/svg" xmlns:xlink="http://www.w3.org/1999/xlink" viewBox="0 0 409.83 205.23"><defs><style>.cls-1{fill:url(#Dégradé_sans_nom_49);}.cls-2{fill:url(#Dégradé_sans_nom_48);}.cls-3{fill:url(#Dégradé_sans_nom_41);}.cls-4{fill:#52a7e6;}.cls-5{fill:url(#Dégradé_sans_nom_41-2);}.cls-6{fill:#5b5b5b;}</style><linearGradient id="Dégradé_sans_nom_49" x1="270.17" y1="48.28" x2="412.62" y2="-29.92" gradientUnits="userSpaceOnUse"><stop offset="0" stop-color="#4a7ddc"/><stop offset="0.17" stop-color="#4f95e2"/><stop offset="0.29" stop-color="#52a7e6"/></linearGradient><linearGradient id="Dégradé_sans_nom_48" x1="249.19" y1="75.49" x2="520.01" y2="75.49" gradientUnits="userSpaceOnUse"><stop offset="0" stop-color="#4a7ddc"/><stop offset="0.14" stop-color="#4f95e2"/><stop offset="0.23" stop-color="#52a7e6"/></linearGradient><linearGradient id="Dégradé_sans_nom_41" x1="178.6" y1="104.43" x2="204.74" y2="13.24" gradientUnits="userSpaceOnUse"><stop offset="0.49" stop-color="#52a7e6"/><stop offset="0.7" stop-color="#4f95e2"/><stop offset="1" stop-color="#4a7ddc"/></linearGradient><linearGradient id="Dégradé_sans_nom_41-2" x1="114.16" y1="112.38" x2="89.15" y2="4.03" xlink:href="#Dégradé_sans_nom_41"/></defs><title>Fichier 3</title><g id="Calque_2" data-name="Calque 2"><g id="Calque_1-2" data-name="Calque 1"><polygon class="cls-1" points="399.62 38.03 247.32 38.03 247.32 0 409.83 0 399.62 38.03"/><polygon class="cls-2" points="384.64 94.51 270.7 94.51 270.7 56.48 394.85 56.48 384.64 94.51"/><polygon class="cls-3" points="218.34 30.13 179.16 30.13 146.89 150.69 186.07 150.69 218.34 30.13"/><path class="cls-4" d="M278.94,112.28l16.19-60.17.23-1a41.15,41.15,0,0,0-39.49-51l-2,0H75.24l0,0a75.31,75.31,0,1,0,65.52,38.2H254.43a4.14,4.14,0,0,1,4,5.22L229.64,150.69H368.73l11.4-38.44Zm-203.7.13a37,37,0,1,1,37-37A37,37,0,0,1,75.24,112.41Z"/><path class="cls-5" d="M140.71,38.36H76.17v.07a37,37,0,0,1,0,74v38.32A75.26,75.26,0,0,0,140.71,38.36Z"/><path class="cls-6" d="M41.87,170.68,39,185.15h19.5L58,187.51H38.51l-3,15.05H58.12L57.6,205H32.33l7.34-36.7H64.2l-.52,2.41Z"/><path class="cls-6" d="M96.19,186.1,106.68,205h-2.84l-9.38-17-16,17H75.22l18-19.08-9.7-17.62h2.84L95.09,184l14.84-15.73h3.14Z"/><path class="cls-6" d="M159.53,178.39c0,9.44-6.5,14.58-16.88,14.58h-11l-2.41,12H126.6l7.34-36.7h12.8C154.81,168.27,159.53,171.94,159.53,178.39Zm-2.73.21c0-5.14-3.67-7.92-10.22-7.92H136.15l-4,19.87h10.49C151.61,190.55,156.8,186.52,156.8,178.6Z"/><path class="cls-6" d="M186.74,170.68l-2.88,14.47h19.5l-.47,2.36h-19.5l-3,15.05H203l-.53,2.41H177.2l7.34-36.7h24.54l-.52,2.41Z"/><path class="cls-6" d="M263.14,168.27,255.8,205h-2.26L235,172.67,228.59,205h-2.68l7.34-36.7h2.2L254,200.57l6.45-32.3Z"/><path class="cls-6" d="M279.5,200.36l1.42-2.05c2.25,2.68,7.07,4.56,11.74,4.56,6.87,0,11.64-2.88,11.64-8.12,0-9-19.4-4.56-19.4-15.89,0-6.92,6-10.85,14.21-10.85,4.19,0,8.34,1.15,11.06,3.2l-1.26,2.2a16.37,16.37,0,0,0-9.91-3c-6.76,0-11.43,3.09-11.43,8.23-.05,9.17,19.4,4.82,19.4,15.83,0,7-6.24,10.8-14.52,10.8C287.1,205.23,281.75,203.14,279.5,200.36Z"/><path class="cls-6" d="M337.33,170.68l-2.88,14.47H354l-.47,2.36H334l-3,15.05h22.65l-.53,2.41H327.79l7.34-36.7h24.54l-.53,2.41Z"/></g></g></svg>